<svg xmlns="http://www.w3.org/2000/svg" data-name="Layer 1" viewBox="0 0 1200 864"><path d="M391.39 652.23c63.19-17.9 131.1-9.06 187.23 25.04 14.64 8.89 20.58 14.91 19.86 21.73.2.33.37.63.53.92 4.32-16.43 34.41-110.76 155.76-110.76s157.04 12.08 232.21-17.45l-78.87 72.47c65.14 2.83 99.09-2.15 107.56-7.14l-51.12 59.84c52.21 8.04 95 12.75 114.12 10.85l7.52 22.31s-16.7 2.62-26.72 0c0 0 9.19 4.54 26.72 9.91 9.82 3.01 18.58 18.35 24.39 31.28.23.5.44 1 .66 1.49l.21.48c.2.45.39.9.58 1.34.09.2.17.41.26.61.18.42.35.84.52 1.25.09.21.17.42.26.62.17.41.33.82.49 1.21.08.19.15.37.22.55.16.39.31.79.46 1.17.07.17.13.34.2.51.15.39.31.79.45 1.16.02.06.04.11.06.17.16.41.31.82.46 1.2l12.93.8s8.77 2.69 9.6 10.74-11.31 9.3-15.96 9.04l-443.42-25.82c-5.24 4.92-27.42 27.75-78.28 27.75-56.99 0-80.16-27.75-80.16-27.75L76.7 803.57c-4.65.26-16.79-.98-15.96-9.04.84-8.05 9.6-10.74 9.6-10.74l12.93-.8c1.51-4.02 3.65-9.34 6.28-14.88.01-.02.02-.05.03-.07.38-.8.77-1.6 1.16-2.4 0-.02.02-.04.03-.06.41-.82.82-1.63 1.25-2.45 5.53-10.59 12.67-20.8 20.48-23.19 17.54-5.37 26.72-9.91 26.72-9.91-10.02 2.62-26.72 0-26.72 0l16.47-9.04s-27.7 4.2 69-14l193.39-54.77Z" style="fill:#f7f5e2;stroke-width:0"/><path d="M1137.96 794.54c-.83-8.05-9.6-10.74-9.6-10.74l-12.93-.8q-.225-.585-.45-1.2c-.02-.06-.04-.11-.06-.17-.14-.38-.3-.77-.45-1.16-.07-.17-.13-.34-.2-.51-.15-.38-.31-.77-.46-1.17-.07-.18-.15-.37-.22-.55-.16-.4-.33-.8-.49-1.21-.08-.21-.17-.41-.26-.62-.17-.41-.34-.83-.52-1.25-.09-.2-.17-.41-.26-.61-.19-.44-.38-.89-.58-1.34l-.21-.48c-.22-.49-.44-.99-.66-1.49-25.1 2.59-50.87 1.28-75.61-.73-39.61-3.22-78.84-9.74-118.27-14.52-36.89-4.47-74.08-5.84-110.94-10.74-17.52-2.33-34.95-5.17-52.05-9.72-17.47-4.65-34.7-10.27-52.36-14.19-18.56-4.12-36.8-5.19-55.74-3.73-15.42 1.19-30.98 6.43-46.5 5.59-1.02-.05-2.04-.09-3.06-.2-14.99-1.64-29.14-7.76-44.03-10.01-17.67-2.66-35.95-1.38-53.52 1.36-35.6 5.55-70.85 14.56-106.08 22.08-36.66 7.83-73.46 15.1-110.71 19.57-34.09 4.08-68.49 7.84-102.73 10.36-21.8 1.61-44 2.3-65.83.03-7.08-.74-14.13-1.78-21.1-3.22-.43.82-.84 1.64-1.25 2.45 0 .02-.02.04-.03.06-.4.8-.79 1.6-1.16 2.4-.01.02-.02.05-.03.07-2.63 5.55-4.77 10.87-6.28 14.88l-12.93.8s-8.77 2.69-9.6 10.74 11.31 9.3 15.96 9.04l443.42-25.82s23.18 27.75 80.16 27.75c50.86 0 73.04-22.83 78.28-27.75l443.42 25.82c4.65.26 16.79-.98 15.96-9.04Z" style="fill:#dad8c6;stroke-width:0"/><path d="M1137.96 794.54c-.83-8.05-9.6-10.74-9.6-10.74l-12.93-.8-448.54-27.84c-1.02 1.22-2.1 2.39-3.22 3.52-6.42-10.32-23.85-29.57-64.31-28.59-40.56-.99-57.98 18.36-64.36 28.67-1.14-1.16-2.22-2.35-3.17-3.6L83.29 783l-12.93.8s-8.77 2.69-9.6 10.74 11.31 9.3 15.96 9.04l443.42-25.82s23.18 27.75 80.16 27.75c50.86 0 73.04-22.83 78.28-27.75L1122 803.58c4.65.26 16.79-.98 15.96-9.04" style="fill:#d86354;stroke-width:0"/><path d="M548.62 768.73c26.81 14.43 71.03 16.61 100.39.74-28.27-35.06-83.68-26.7-100.39-.74" style="fill:#7c7974;stroke-width:0"/><path d="M1137.96 794.54c-.83-8.05-9.6-10.74-9.6-10.74l-12.93-.8-448.54-27.84c-1.02 1.22-2.1 2.39-3.22 3.52-4.23 4.25-9.18 7.83-14.65 10.79-29.37 15.87-73.58 13.69-100.39-.74-5.31-2.86-9.93-6.19-13.62-9.97-1.14-1.16-2.22-2.35-3.17-3.6L83.3 783l-12.93.8s-8.77 2.69-9.6 10.74 11.31 9.3 15.96 9.04l443.42-25.82s23.18 27.75 80.16 27.75c50.86 0 73.04-22.83 78.28-27.75l443.42 25.82c4.65.26 16.79-.98 15.96-9.04Z" style="fill:#acf0d1;stroke-width:0"/><path d="m908.12 644.18 78.87-72.47c-75.18 29.53-108.62 17.45-232.21 17.45s-151.44 94.33-155.76 110.76c.07.12.13.24.19.34.05.09.11.19.15.27 5.98-10.93 41.64-66.87 136-46.64 69.95 14.99 158.26 32.06 229.19 42.98l51.12-59.84c-8.47 4.99-42.42 9.98-107.56 7.14Z" style="fill:#d5cdc3;stroke-width:0"/><path d="M651.38 695.65c16.11-6.26 33.89-8.95 62.65-8.95 22.37 0 144.14 20.58 144.14 20.58-69.86-17.13-81.49-25.95-133.4-33.11s-73.39 21.48-73.39 21.48M846.37 723.4c-39.94-3.6-60.74-8.05-73.27 0 0 0 169.14 13.42 182.57 15.21 0 0-84.43-12.97-109.3-15.21M938.66 750.25s137.27 13.95 153.33 16.01c-8.34-1.11-94.06-12.5-109.7-16.01-16.44-3.69-43.63 0-43.63 0M911.81 710.31c1.34.67 96.99 14.1 109.41 15.44 0 0-25.31-9.67-45.64-12.42-26.18-3.53-63.76-3.02-63.76-3.02ZM491.82 686.7c28.75 0 46.54 2.68 62.65 8.95 0 0-21.48-28.64-73.39-21.48s-63.54 15.98-133.4 33.11c0 0 121.77-20.58 144.14-20.58M359.48 723.4c-24.86 2.24-109.29 15.21-109.29 15.21 13.42-1.79 182.57-15.21 182.57-15.21-12.53-8.05-33.34-3.6-73.27 0ZM223.56 750.25c-15.64 3.51-101.36 14.91-109.7 16.01 16.05-2.06 153.33-16.01 153.33-16.01s-27.18-3.69-43.63 0M230.28 713.33c-20.33 2.74-45.64 12.42-45.64 12.42 12.42-1.34 108.06-14.77 109.41-15.44 0 0-37.59-.51-63.76 3.02Z" style="fill:#beb4a5;stroke-width:0"/><path d="M778.91 632.11c52.22 6.93 95.01 10.57 129.21 12.06l78.87-72.47c-75.18 29.53-108.62 17.45-232.21 17.45s-151.44 94.33-155.76 110.76c.07.12.13.24.19.34 5.47-13.43 41.8-86.46 179.7-68.15Z" style="fill:#beb4a5;stroke-width:0"/><path d="M1113 24v.1l-27.5 63 27.5 87.78v-.09L1140.5 87l-12.94-29.65z" style="fill:#ffd770;stroke-width:0"/><path d="M1009 81v.14l-39.44 90.36L1009 297.42v-.14l39.44-125.92-18.56-42.52zM1089 196.1v.05l-13.91 31.87 13.91 44.4v-.05l13.91-44.4-6.55-15z" style="fill:#ffe5aa;stroke-width:0"/><path d="M72 53.27v.09l-27.5 63L72 204.15v-.09l27.5-87.79-12.94-29.65z" style="fill:#ffd770;stroke-width:0"/><path d="M169 99.27v.14l-39.44 90.36L169 315.69v-.14l39.44-125.92-18.56-42.52z" style="fill:#ffe5aa;stroke-width:0"/><path d="M82 545.82v.05l-13.91 31.86L82 622.14v-.05l13.91-44.4-6.55-15z" style="fill:#ffd770;stroke-width:0"/><path d="M126.75 460.06v.07L107 505.37l19.75 63.05v-.07l19.75-63.05-9.29-21.29z" style="fill:#ffe5aa;stroke-width:0"/><path d="M1096 475.82v.05l-13.91 31.86 13.91 44.41v-.05l13.91-44.4-6.55-15z" style="fill:#ffd770;stroke-width:0"/><path d="m280.08 347.85-.48-2.56c1.12-.91 2.35-1.75 3.68-2.52s2.75-1.51 4.24-2.2l.08 7.28zm10.08-46.96-9.76-1.92.08-4.4h9.92zm-3.76 46.96v-53.28h15.36l-6.24 10.56 2.24 20.32v22.4zm32.72 1.12-31.6-46.56.08-7.84h14.08l29.92 45.36-2.08 6.88zm-25.6-1.12.24-6.32 11.04 1.92-.08 4.4zm32.4-46.96-11.04-1.92.08-4.4h11.2zm-6.8 48.08 6.48-4.48-2.88-26.24v-23.68h11.36l-.64 53.28zm13.2-47.12-.08-7.28h7.52l.48 2.56c-1.12.85-2.33 1.67-3.64 2.44s-2.73 1.53-4.28 2.28M356.32 348.81c-3.25.53-6.05.31-8.4-.68s-4.13-2.37-5.36-4.16-1.84-3.61-1.84-5.48c0-1.71.53-3.47 1.6-5.28s2.8-3.31 5.2-4.48l17.76-.4v5.28h-2.56c-.8 0-1.59.07-2.36.2q-1.155.195-2.04.6c-.59.27-1.05.64-1.4 1.12s-.52 1.07-.52 1.76c0 .53.11 1.12.32 1.76s.51 1.17.88 1.6c.85-.11 1.69-.25 2.52-.44s1.65-.4 2.48-.64 1.56-.44 2.2-.6l1.36 3.36zm17.28.4c-1.23 0-2.43-.27-3.6-.8s-2.27-1.32-3.28-2.36-1.89-2.31-2.64-3.8l-1.52-.24v-19.6c0-2.51-.39-4.33-1.16-5.48s-1.59-1.93-2.44-2.36c-.53.05-1.07.15-1.6.28s-.99.31-1.36.52l-2.32 8.96-9.12.08q-.885-2.955-1.2-6.36c-.21-2.27-.16-4.44.16-6.52 1.81-.64 3.75-1.21 5.8-1.72s4.08-.93 6.08-1.28 3.88-.61 5.64-.8 3.23-.28 4.4-.28c1.6 0 3.12.19 4.56.56s2.81 1 4.12 1.88 2.49 2.04 3.56 3.48c.43.64.69 1.6.8 2.88s.16 3.04.16 5.28v15.6q0 .795.48 1.44c.32.43.8.64 1.44.64s1.27-.01 1.88-.04 1.4-.07 2.36-.12l.24 3.6zM397.2 324.17l-16-10.4v-4.48h20.24zm-1.6 42.4-8.24-14.24c3.25-.91 6.45-1.88 9.6-2.92s6.24-2.15 9.28-3.32c-1.6-.37-3.12-.75-4.56-1.12s-2.93-.75-4.48-1.12l-11.68-31.92 16-2.64 4.88 18.24.4 5.44h1.28q.795-3.84 1.56-7.8c.51-2.64.99-5.31 1.44-8s.87-5.32 1.24-7.88h16.64q-1.365 4.8-2.76 10.08c-.93 3.52-1.92 7.07-2.96 10.64s-2.23 7.07-3.56 10.48c-1.44 3.68-3.19 7.05-5.24 10.12s-4.59 5.89-7.6 8.48-6.76 5.08-11.24 7.48m29.76-50.08-9.6-7.2h14.88l.08 4.24c-.69.59-1.53 1.13-2.52 1.64s-1.93.95-2.84 1.32M446.32 348.81c-3.25.53-6.05.31-8.4-.68s-4.13-2.37-5.36-4.16-1.84-3.61-1.84-5.48c0-1.71.53-3.47 1.6-5.28s2.8-3.31 5.2-4.48l17.76-.4v5.28h-2.56c-.8 0-1.59.07-2.36.2q-1.155.195-2.04.6c-.59.27-1.05.64-1.4 1.12s-.52 1.07-.52 1.76c0 .53.11 1.12.32 1.76s.51 1.17.88 1.6c.85-.11 1.69-.25 2.52-.44s1.65-.4 2.48-.64 1.56-.44 2.2-.6l1.36 3.36zm17.28.4c-1.23 0-2.43-.27-3.6-.8s-2.27-1.32-3.28-2.36-1.89-2.31-2.64-3.8l-1.52-.24v-19.6c0-2.51-.39-4.33-1.16-5.48s-1.59-1.93-2.44-2.36c-.53.05-1.07.15-1.6.28s-.99.31-1.36.52l-2.32 8.96-9.12.08q-.885-2.955-1.2-6.36c-.21-2.27-.16-4.44.16-6.52 1.81-.64 3.75-1.21 5.8-1.72s4.08-.93 6.08-1.28 3.88-.61 5.64-.8 3.23-.28 4.4-.28c1.6 0 3.12.19 4.56.56s2.81 1 4.12 1.88 2.49 2.04 3.56 3.48c.43.64.69 1.6.8 2.88s.16 3.04.16 5.28v15.6q0 .795.48 1.44c.32.43.8.64 1.44.64s1.27-.01 1.88-.04 1.4-.07 2.36-.12l.24 3.6zM474.32 314.65l-.16-3.92c2.56-.91 5.32-1.62 8.28-2.16q4.44-.795 9.24-.96l-.4 6.88-6.96 2.72zm.08 33.2-.08-2.8c1.71-1.07 3.48-1.95 5.32-2.64s3.59-1.23 5.24-1.6l-.64 7.04zm5.92 0v-35.6l11.36-4.64 4.72 4.88v35.36zm23.92 0v-22.48c0-2.19-.47-3.93-1.4-5.24q-1.395-1.965-4.2-1.8c-1.23.05-2.52.39-3.88 1s-2.71 1.36-4.04 2.24-2.64 1.8-3.92 2.76l-.08-1.68q3.195-3.6 6.6-6.48c2.27-1.92 4.56-3.56 6.88-4.92q3.48-2.04 6.84-3.24c1.07-.05 2.35.05 3.84.32q2.235.405 4.56 1.68c2.325 1.275 2.85 2.13 3.92 3.84.27.43.47 1.01.6 1.76s.23 1.79.28 3.12.08 3.2.08 5.6v23.52zm-16.56 0 2.64-9.2c1.76.54 3.53 1.24 5.32 2.12s3.51 1.93 5.16 3.16l-.08 3.92zm23.92 0 2.64-9.2c1.76.54 3.76 1.24 6 2.12s4.19 1.93 5.84 3.16l-.16 3.92zM543.28 348.81c-3.25.53-6.05.31-8.4-.68s-4.13-2.37-5.36-4.16-1.84-3.61-1.84-5.48c0-1.71.53-3.47 1.6-5.28s2.8-3.31 5.2-4.48l17.76-.4v5.28h-2.56c-.8 0-1.59.07-2.36.2q-1.155.195-2.04.6c-.59.27-1.05.64-1.4 1.12s-.52 1.07-.52 1.76c0 .53.11 1.12.32 1.76s.51 1.17.88 1.6c.85-.11 1.69-.25 2.52-.44s1.65-.4 2.48-.64 1.56-.44 2.2-.6l1.36 3.36zm17.28.4c-1.23 0-2.43-.27-3.6-.8s-2.27-1.32-3.28-2.36-1.89-2.31-2.64-3.8l-1.52-.24v-19.6c0-2.51-.39-4.33-1.16-5.48s-1.59-1.93-2.44-2.36c-.53.05-1.07.15-1.6.28s-.99.31-1.36.52l-2.32 8.96-9.12.08q-.885-2.955-1.2-6.36c-.21-2.27-.16-4.44.16-6.52 1.81-.64 3.75-1.21 5.8-1.72s4.08-.93 6.08-1.28 3.88-.61 5.64-.8 3.23-.28 4.4-.28c1.6 0 3.12.19 4.56.56s2.81 1 4.12 1.88 2.49 2.04 3.56 3.48c.43.64.69 1.6.8 2.88s.16 3.04.16 5.28v15.6q0 .795.48 1.44c.32.43.8.64 1.44.64s1.27-.01 1.88-.04 1.4-.07 2.36-.12l.24 3.6zM592.32 347.85l-.48-2.56c1.12-.91 2.35-1.75 3.68-2.52s2.75-1.51 4.24-2.2l.08 7.28zm3.52 0 20.88-51.68 8.72 1.44-18.56 50.24zm8.24 0 .24-6.32 11.04 1.92-.08 4.4zm4.08-12.96v-7.36h26.64v7.36zm24.64 12.96-19.04-51.6 14.56-3.6 22.16 55.2zm-7.84 0-.48-2.56c1.12-.91 2.35-1.75 3.68-2.52s2.75-1.51 4.24-2.2l.88 7.28zm17.76 0 .24-6.32 11.04 1.92-.08 4.4z" style="fill:#00203f;stroke-width:0"/><path d="M670 368.01q-2.88 0-5.88-.6c-3-.6-3.88-1.08-5.64-2.04s-3.25-2.25-4.48-3.88-2-3.67-2.32-6.12l12.56-11.04 7.68-.56c-1.87 1.01-3.4 1.99-4.6 2.92s-2.09 1.81-2.68 2.64-.88 1.64-.88 2.44c0 1.65.89 2.87 2.68 3.64s3.88 1.16 6.28 1.16c1.49 0 3-.15 4.52-.44s2.91-.72 4.16-1.28q1.875-.84 3-2.04c-2.35-.8-5.05-1.52-8.12-2.16s-6.32-1.17-9.76-1.6-6.95-.72-10.52-.88l-1.76-6.56c1.39-1.39 2.77-2.64 4.16-3.76s2.84-2.16 4.36-3.12 3.13-1.84 4.84-2.64l5.36 1.36q-1.68.96-3.12 2.04c-1.44 1.08-1.84 1.45-2.64 2.2 2.35 0 4.71.11 7.08.32s4.72.52 7.04.92 4.59.84 6.8 1.32 4.31 1.01 6.28 1.6c1.12 2.24 1.56 4.57 1.32 7s-1.04 4.77-2.4 7.04-3.2 4.32-5.52 6.16-4.99 3.29-8 4.36-6.28 1.6-9.8 1.6m2.4-32.64c-4.48 0-8.13-.68-10.96-2.04s-4.92-3.09-6.28-5.2q-2.04-3.165-2.04-6.36c0-2.35.75-4.61 2.24-6.8s3.72-4 6.68-5.44 6.57-2.16 10.84-2.16c4 0 7.47.64 10.4 1.92s5.19 2.99 6.76 5.12 2.36 4.45 2.36 6.96-.76 4.67-2.28 6.8-3.76 3.87-6.72 5.2-6.63 2-11 2m2.32-6.4c.69-.43 1.24-1.28 1.64-2.56s.6-2.67.6-4.16c0-1.07-.15-2.13-.44-3.2a9.4 9.4 0 0 0-1.28-2.84q-.84-1.245-2.04-1.8c-.8-.37-1.73-.4-2.8-.08q-.795.555-1.32 2.76c-.35 1.47-.52 2.95-.52 4.44s.21 2.79.64 4.04q.645 1.875 2.04 2.88c.93.67 2.09.84 3.48.52m9.44-9.28c-.48-1.76-.71-3.61-.68-5.56s.44-3.8 1.24-5.56q1.2-2.64 3.84-4.32c1.76-1.12 4.11-1.71 7.04-1.76l2.48 12.32c-4.85-.85-8.91.16-12.16 3.04zM699.04 314.65l-.16-3.92c2.56-.91 5.32-1.62 8.28-2.16q4.44-.795 9.24-.96l-.4 6.88-6.96 2.72zm.08 33.2-.08-2.8c1.71-1.07 3.48-1.95 5.32-2.64s3.59-1.23 5.24-1.6l-.64 7.04zm5.92 0v-35.6l11.36-4.64 4.72 9.52v30.72zm6.08-19.68 2.88-5.2 12.72-14.88c1.81-.59 3.71-.69 5.68-.32s3.72 1.15 5.24 2.32 2.55 2.67 3.08 4.48l-10 12.24a61 61 0 0 0-4.56-3.64c-1.65-1.2-3.41-1.93-5.28-2.2zm5.44 19.68 2.64-8.56c1.17.32 2.37.71 3.6 1.16s2.45.96 3.68 1.52 2.4 1.21 3.52 1.96l-.08 3.92zM755.68 348.81c-3.25.53-6.05.31-8.4-.68s-4.13-2.37-5.36-4.16-1.84-3.61-1.84-5.48c0-1.71.53-3.47 1.6-5.28s2.8-3.31 5.2-4.48l17.76-.4v5.28h-2.56c-.8 0-1.59.07-2.36.2q-1.155.195-2.04.6c-.59.27-1.05.64-1.4 1.12s-.52 1.07-.52 1.76c0 .53.11 1.12.32 1.76s.51 1.17.88 1.6c.85-.11 1.69-.25 2.52-.44s1.65-.4 2.48-.64 1.56-.44 2.2-.6l1.36 3.36zm17.28.4c-1.23 0-2.43-.27-3.6-.8s-2.27-1.32-3.28-2.36-1.89-2.31-2.64-3.8l-1.52-.24v-19.6c0-2.51-.39-4.33-1.16-5.48s-1.59-1.93-2.44-2.36c-.53.05-1.07.15-1.6.28s-.99.31-1.36.52l-2.32 8.96-9.12.08q-.885-2.955-1.2-6.36c-.21-2.27-.16-4.44.16-6.52 1.81-.64 3.75-1.21 5.8-1.72s4.08-.93 6.08-1.28 3.88-.61 5.64-.8 3.23-.28 4.4-.28c1.6 0 3.12.19 4.56.56s2.81 1 4.12 1.88 2.49 2.04 3.56 3.48c.43.64.69 1.6.8 2.88s.16 3.04.16 5.28v15.6q0 .795.48 1.44c.32.43.8.64 1.44.64s1.27-.01 1.88-.04 1.4-.07 2.36-.12l.24 3.6zM795.2 324.17l-14.64-10.4v-4.48h18.56zm1.04 24-13.2-36.4 16.16-2.48 5.92 18.96 2.08 6.72h.96l3.92-10.96 6.16 2-1.52 7.76-6 13.76c-1.28.37-2.85.65-4.72.84s-3.68.25-5.44.2-3.2-.19-4.32-.4m22.56 0-13.84-38.4 16.24-.32 5.2 18.96 1.84 6.56h.88l-.08-25.68h17.6l-14 38.24q-1.92.555-4.56.84c-1.76.19-3.47.25-5.12.2s-3.04-.19-4.16-.4m24-31.68-9.6-7.2h14.24l.08 4.24c-.69.59-1.43 1.13-2.2 1.64q-1.155.765-2.52 1.32M863.52 348.81c-3.25.53-6.05.31-8.4-.68s-4.13-2.37-5.36-4.16-1.84-3.61-1.84-5.48c0-1.71.53-3.47 1.6-5.28s2.8-3.31 5.2-4.48l17.76-.4v5.28h-2.56c-.8 0-1.59.07-2.36.2q-1.155.195-2.04.6c-.59.27-1.05.64-1.4 1.12s-.52 1.07-.52 1.76c0 .53.11 1.12.32 1.76s.51 1.17.88 1.6c.85-.11 1.69-.25 2.52-.44s1.65-.4 2.48-.64 1.56-.44 2.2-.6l1.36 3.36zm17.28.4c-1.23 0-2.43-.27-3.6-.8s-2.27-1.32-3.28-2.36-1.89-2.31-2.64-3.8l-1.52-.24v-19.6c0-2.51-.39-4.33-1.16-5.48s-1.59-1.93-2.44-2.36c-.53.05-1.07.15-1.6.28s-.99.31-1.36.52l-2.32 8.96-9.12.08q-.885-2.955-1.2-6.36c-.21-2.27-.16-4.44.16-6.52 1.81-.64 3.75-1.21 5.8-1.72s4.08-.93 6.08-1.28 3.88-.61 5.64-.8 3.23-.28 4.4-.28c1.6 0 3.12.19 4.56.56s2.81 1 4.12 1.88 2.49 2.04 3.56 3.48c.43.64.69 1.6.8 2.88s.16 3.04.16 5.28v15.6q0 .795.48 1.44c.32.43.8.64 1.44.64s1.27-.01 1.88-.04 1.4-.07 2.36-.12l.24 3.6zM893.12 296.01l-.16-4c2.56-.91 5.32-1.61 8.28-2.12s6.04-.84 9.24-1l-.4 6.88-6.96 2.72zm0 51.84-.08-2.8c1.71-1.07 3.48-1.95 5.32-2.64s3.59-1.23 5.24-1.6l-.64 7.04zm6 0v-54.32l11.36-4.64 4.72 4.32v54.64zm7.44 0 2.64-9.2c1.76.54 3.75 1.24 5.96 2.12s4.15 1.93 5.8 3.16l-.08 3.92z" style="fill:#00203f;stroke-width:0"/><text style="fill:#000;font-family:Ebrima,Ebrima;font-size:20px" transform="translate(303.29 411.88)"><tspan x="0" y="0">I’m a design and web design specialist with 4 years of experience in </tspan><tspan x="-24.77" y="27">marketing, user flows, wireframing, and website publishing. I’m proficient </tspan><tspan x="-5.4" y="54">in design and development tools like Figma, React, Adobe Suite, and </tspan><tspan x="-29.26" y="81">advanced CSS, all of which I used to create this animation. For more of my </tspan><tspan x="97.13" y="108">work, see my portfolio or contact me directly. </tspan></text><path d="M269.93 376.24h660.14" style="fill:#00203f;stroke:#d86354;stroke-miterlimit:10;stroke-width:3px"/></svg>