<?xml version="1.0" encoding="UTF-8"?>
<svg id="Layer_1" data-name="Layer 1" xmlns="http://www.w3.org/2000/svg" version="1.1"
  viewBox="0 0 1200 864">

  <g class="book">
    <path
      d="M391.39,652.23c63.19-17.9,131.1-9.06,187.23,25.04,14.64,8.89,20.58,14.91,19.86,21.73.2.33.37.63.53.92,4.32-16.43,34.41-110.76,155.76-110.76s157.04,12.08,232.21-17.45l-78.87,72.47c65.14,2.83,99.09-2.15,107.56-7.14l-51.12,59.84c52.21,8.04,95,12.75,114.12,10.85l7.52,22.31s-16.7,2.62-26.72,0c0,0,9.19,4.54,26.72,9.91,9.82,3.01,18.58,18.35,24.39,31.28,0,0,0,0,0,0,.23.5.44,1,.66,1.49.07.16.14.32.21.48.2.45.39.9.58,1.34.09.2.17.41.26.61.18.42.35.84.52,1.25.09.21.17.42.26.62.17.41.33.82.49,1.21.08.19.15.37.22.55.16.39.31.79.46,1.17.07.17.13.34.2.51.15.39.31.79.45,1.16.02.06.04.11.06.17.16.41.31.82.46,1.2l12.93.8s8.77,2.69,9.6,10.74c.83,8.05-11.31,9.3-15.96,9.04l-443.42-25.82c-5.24,4.92-27.42,27.75-78.28,27.75-56.99,0-80.16-27.75-80.16-27.75l-443.42,25.82c-4.65.26-16.79-.98-15.96-9.04.84-8.05,9.6-10.74,9.6-10.74l12.93-.8c1.51-4.02,3.65-9.34,6.28-14.88.01-.02.02-.05.03-.07.38-.8.77-1.6,1.16-2.4,0-.02.02-.04.03-.06.41-.82.82-1.63,1.25-2.45h0c5.53-10.59,12.67-20.8,20.48-23.19,17.54-5.37,26.72-9.91,26.72-9.91-10.02,2.62-26.72,0-26.72,0l16.47-9.04s-27.7,4.2,69-14l193.39-54.77Z"
      style="fill: #f7f5e2; stroke-width: 0px;" />
    <path
      d="M1137.96,794.54c-.83-8.05-9.6-10.74-9.6-10.74l-12.93-.8h0c-.15-.39-.3-.79-.45-1.2-.02-.06-.04-.11-.06-.17-.14-.38-.3-.77-.45-1.16-.07-.17-.13-.34-.2-.51-.15-.38-.31-.77-.46-1.17-.07-.18-.15-.37-.22-.55-.16-.4-.33-.8-.49-1.21-.08-.21-.17-.41-.26-.62-.17-.41-.34-.83-.52-1.25-.09-.2-.17-.41-.26-.61-.19-.44-.38-.89-.58-1.34-.07-.16-.14-.32-.21-.48-.22-.49-.44-.99-.66-1.49-25.1,2.59-50.87,1.28-75.61-.73-39.61-3.22-78.84-9.74-118.27-14.52-36.89-4.47-74.08-5.84-110.94-10.74-17.52-2.33-34.95-5.17-52.05-9.72-17.47-4.65-34.7-10.27-52.36-14.19-18.56-4.12-36.8-5.19-55.74-3.73-15.42,1.19-30.98,6.43-46.5,5.59-1.02-.05-2.04-.09-3.06-.2-14.99-1.64-29.14-7.76-44.03-10.01-17.67-2.66-35.95-1.38-53.52,1.36-35.6,5.55-70.85,14.56-106.08,22.08-36.66,7.83-73.46,15.1-110.71,19.57-34.09,4.08-68.49,7.84-102.73,10.36-21.8,1.61-44,2.3-65.83.03-7.08-.74-14.13-1.78-21.1-3.22h0c-.43.82-.84,1.64-1.25,2.45,0,.02-.02.04-.03.06-.4.8-.79,1.6-1.16,2.4-.01.02-.02.05-.03.07-2.63,5.55-4.77,10.87-6.28,14.88h0l-12.93.8s-8.77,2.69-9.6,10.74c-.83,8.05,11.31,9.3,15.96,9.04l443.42-25.82s23.18,27.75,80.16,27.75c50.86,0,73.04-22.83,78.28-27.75l443.42,25.82c4.65.26,16.79-.98,15.96-9.04Z"
      style="fill: #dad8c6; stroke-width: 0px;" />
    <path
      d="M1137.96,794.54c-.83-8.05-9.6-10.74-9.6-10.74l-12.93-.8h0l-448.54-27.84c-1.02,1.22-2.1,2.39-3.22,3.52-6.42-10.32-23.85-29.57-64.31-28.59-40.56-.99-57.98,18.36-64.36,28.67-1.14-1.16-2.22-2.35-3.17-3.6l-448.54,27.84h0l-12.93.8s-8.77,2.69-9.6,10.74c-.83,8.05,11.31,9.3,15.96,9.04l443.42-25.82s23.18,27.75,80.16,27.75c50.86,0,73.04-22.83,78.28-27.75l443.42,25.82c4.65.26,16.79-.98,15.96-9.04Z"
      style="fill: #d86354; stroke-width: 0px;" />
    <path d="M548.62,768.73c26.81,14.43,71.03,16.61,100.39.74-28.27-35.06-83.68-26.7-100.39-.74Z"
      style="fill: #7c7974; stroke-width: 0px;" />
    <path
      d="M1137.96,794.54c-.83-8.05-9.6-10.74-9.6-10.74l-12.93-.8h0l-448.54-27.84c-1.02,1.22-2.1,2.39-3.22,3.52-4.23,4.25-9.18,7.83-14.65,10.79-29.37,15.87-73.58,13.69-100.39-.74-5.31-2.86-9.93-6.19-13.62-9.97-1.14-1.16-2.22-2.35-3.17-3.6l-448.54,27.84h0l-12.93.8s-8.77,2.69-9.6,10.74c-.83,8.05,11.31,9.3,15.96,9.04l443.42-25.82s23.18,27.75,80.16,27.75c50.86,0,73.04-22.83,78.28-27.75l443.42,25.82c4.65.26,16.79-.98,15.96-9.04Z"
      style="fill: #acf0d1; stroke-width: 0px;" />
    <path
      d="M908.12,644.18l78.87-72.47c-75.18,29.53-108.62,17.45-232.21,17.45s-151.44,94.33-155.76,110.76c.07.12.13.24.19.34.05.09.11.19.15.27,5.98-10.93,41.64-66.87,136-46.64,69.95,14.99,158.26,32.06,229.19,42.98l51.12-59.84c-8.47,4.99-42.42,9.98-107.56,7.14Z"
      style="fill: #d5cdc3; stroke-width: 0px;" />
    <path
      d="M651.38,695.65c16.11-6.26,33.89-8.95,62.65-8.95,22.37,0,144.14,20.58,144.14,20.58-69.86-17.13-81.49-25.95-133.4-33.11-51.91-7.16-73.39,21.48-73.39,21.48Z"
      style="fill: #beb4a5; stroke-width: 0px;" />
    <path
      d="M846.37,723.4c-39.94-3.6-60.74-8.05-73.27,0,0,0,169.14,13.42,182.57,15.21,0,0-84.43-12.97-109.3-15.21Z"
      style="fill: #beb4a5; stroke-width: 0px;" />
    <path
      d="M938.66,750.25s137.27,13.95,153.33,16.01c-8.34-1.11-94.06-12.5-109.7-16.01-16.44-3.69-43.63,0-43.63,0Z"
      style="fill: #beb4a5; stroke-width: 0px;" />
    <path
      d="M911.81,710.31c1.34.67,96.99,14.1,109.41,15.44,0,0-25.31-9.67-45.64-12.42-26.18-3.53-63.76-3.02-63.76-3.02Z"
      style="fill: #beb4a5; stroke-width: 0px;" />
    <path
      d="M491.82,686.7c28.75,0,46.54,2.68,62.65,8.95,0,0-21.48-28.64-73.39-21.48-51.91,7.16-63.54,15.98-133.4,33.11,0,0,121.77-20.58,144.14-20.58Z"
      style="fill: #beb4a5; stroke-width: 0px;" />
    <path
      d="M359.48,723.4c-24.86,2.24-109.29,15.21-109.29,15.21,13.42-1.79,182.57-15.21,182.57-15.21-12.53-8.05-33.34-3.6-73.27,0Z"
      style="fill: #beb4a5; stroke-width: 0px;" />
    <path
      d="M223.56,750.25c-15.64,3.51-101.36,14.91-109.7,16.01,16.05-2.06,153.33-16.01,153.33-16.01,0,0-27.18-3.69-43.63,0Z"
      style="fill: #beb4a5; stroke-width: 0px;" />
    <path
      d="M230.28,713.33c-20.33,2.74-45.64,12.42-45.64,12.42,12.42-1.34,108.06-14.77,109.41-15.44,0,0-37.59-.51-63.76,3.02Z"
      style="fill: #beb4a5; stroke-width: 0px;" />
    <path
      d="M778.91,632.11c52.22,6.93,95.01,10.57,129.21,12.06l78.87-72.47c-75.18,29.53-108.62,17.45-232.21,17.45s-151.44,94.33-155.76,110.76c.07.12.13.24.19.34,5.47-13.43,41.8-86.46,179.7-68.15Z"
      style="fill: #beb4a5; stroke-width: 0px;" />
  </g>

  <polygon class="diamond"
    points="1113 24 1113 24.1 1085.5 87.1 1113 174.88 1113 174.79 1140.5 87 1127.56 57.35 1113 24"
    style="fill: #ffd770; stroke-width: 0px;" />
  <polygon class="diamond"
    points="1009 81 1009 81.14 969.56 171.5 1009 297.42 1009 297.28 1048.44 171.36 1029.88 128.84 1009 81"
    style="fill: #ffe5aa; stroke-width: 0px;" />
  <polygon class="diamond"
    points="1089 196.1 1089 196.15 1075.09 228.02 1089 272.42 1089 272.37 1102.91 227.97 1096.36 212.97 1089 196.1"
    style="fill: #ffe5aa; stroke-width: 0px;" />
  <polygon class="diamond"
    points="72 53.27 72 53.36 44.5 116.36 72 204.15 72 204.06 99.5 116.27 86.56 86.62 72 53.27"
    style="fill: #ffd770; stroke-width: 0px;" />
  <polygon class="diamond"
    points="169 99.27 169 99.41 129.56 189.77 169 315.69 169 315.55 208.44 189.63 189.88 147.11 169 99.27"
    style="fill: #ffe5aa; stroke-width: 0px;" />
  <polygon class="diamond"
    points="82 545.82 82 545.87 68.09 577.73 82 622.14 82 622.09 95.91 577.69 89.36 562.69 82 545.82"
    style="fill: #ffd770; stroke-width: 0px;" />
  <polygon class="diamond"
    points="126.75 460.06 126.75 460.13 107 505.37 126.75 568.42 126.75 568.35 146.5 505.3 137.21 484.01 126.75 460.06"
    style="fill: #ffe5aa; stroke-width: 0px;" />
  <polygon class="diamond"
    points="1096 475.82 1096 475.87 1082.09 507.73 1096 552.14 1096 552.09 1109.91 507.69 1103.36 492.69 1096 475.82"
    style="fill: #ffd770; stroke-width: 0px;" />

  <g class="full-name">
    <path class="name-letter"
      d="M280.08,347.85l-.48-2.56c1.12-.91,2.35-1.75,3.68-2.52,1.33-.77,2.75-1.51,4.24-2.2l.08,7.28h-7.52ZM290.16,300.89l-9.76-1.92.08-4.4h9.92l-.24,6.32ZM286.4,347.85v-53.28h15.36l-6.24,10.56,2.24,20.32v22.4h-11.36ZM319.12,348.97l-31.6-46.56.08-7.84h14.08l29.92,45.36-2.08,6.88-10.4,2.16ZM293.52,347.85l.24-6.32,11.04,1.92-.08,4.4h-11.2ZM325.92,300.89l-11.04-1.92.08-4.4h11.2l-.24,6.32ZM319.12,348.97l6.48-4.48-2.88-26.24v-23.68h11.36l-.64,53.28-14.32,1.12ZM332.32,301.85l-.08-7.28h7.52l.48,2.56c-1.12.85-2.33,1.67-3.64,2.44-1.31.77-2.73,1.53-4.28,2.28Z"
      style="fill: #00203f; stroke-width: 0px;" />
    <path class="name-letter"
      d="M356.32,348.81c-3.25.53-6.05.31-8.4-.68-2.35-.99-4.13-2.37-5.36-4.16-1.23-1.79-1.84-3.61-1.84-5.48,0-1.71.53-3.47,1.6-5.28,1.07-1.81,2.8-3.31,5.2-4.48l17.76-.4v5.28h-2.56c-.8,0-1.59.07-2.36.2-.77.13-1.45.33-2.04.6-.59.27-1.05.64-1.4,1.12-.35.48-.52,1.07-.52,1.76,0,.53.11,1.12.32,1.76.21.64.51,1.17.88,1.6.85-.11,1.69-.25,2.52-.44.83-.19,1.65-.4,2.48-.64.83-.24,1.56-.44,2.2-.6l1.36,3.36-9.84,6.48ZM373.6,349.21c-1.23,0-2.43-.27-3.6-.8-1.17-.53-2.27-1.32-3.28-2.36-1.01-1.04-1.89-2.31-2.64-3.8l-1.52-.24v-19.6c0-2.51-.39-4.33-1.16-5.48-.77-1.15-1.59-1.93-2.44-2.36-.53.05-1.07.15-1.6.28-.53.13-.99.31-1.36.52l-2.32,8.96-9.12.08c-.59-1.97-.99-4.09-1.2-6.36-.21-2.27-.16-4.44.16-6.52,1.81-.64,3.75-1.21,5.8-1.72,2.05-.51,4.08-.93,6.08-1.28,2-.35,3.88-.61,5.64-.8,1.76-.19,3.23-.28,4.4-.28,1.6,0,3.12.19,4.56.56,1.44.37,2.81,1,4.12,1.88,1.31.88,2.49,2.04,3.56,3.48.43.64.69,1.6.8,2.88.11,1.28.16,3.04.16,5.28v15.6c0,.53.16,1.01.48,1.44.32.43.8.64,1.44.64s1.27-.01,1.88-.04c.61-.03,1.4-.07,2.36-.12l.24,3.6-11.44,6.56Z"
      style="fill: #00203f; stroke-width: 0px;" />
    <path class="name-letter"
      d="M397.2,324.17l-16-10.4v-4.48h20.24l-4.24,14.88ZM395.6,366.57l-8.24-14.24c3.25-.91,6.45-1.88,9.6-2.92,3.15-1.04,6.24-2.15,9.28-3.32-1.6-.37-3.12-.75-4.56-1.12-1.44-.37-2.93-.75-4.48-1.12l-11.68-31.92,16-2.64,4.88,18.24.4,5.44h1.28c.53-2.56,1.05-5.16,1.56-7.8.51-2.64.99-5.31,1.44-8,.45-2.69.87-5.32,1.24-7.88h16.64c-.91,3.2-1.83,6.56-2.76,10.08-.93,3.52-1.92,7.07-2.96,10.64s-2.23,7.07-3.56,10.48c-1.44,3.68-3.19,7.05-5.24,10.12-2.05,3.07-4.59,5.89-7.6,8.48-3.01,2.59-6.76,5.08-11.24,7.48ZM425.36,316.49l-9.6-7.2h14.88l.08,4.24c-.69.59-1.53,1.13-2.52,1.64-.99.51-1.93.95-2.84,1.32Z"
      style="fill: #00203f; stroke-width: 0px;" />
    <path class="name-letter"
      d="M446.32,348.81c-3.25.53-6.05.31-8.4-.68-2.35-.99-4.13-2.37-5.36-4.16-1.23-1.79-1.84-3.61-1.84-5.48,0-1.71.53-3.47,1.6-5.28,1.07-1.81,2.8-3.31,5.2-4.48l17.76-.4v5.28h-2.56c-.8,0-1.59.07-2.36.2-.77.13-1.45.33-2.04.6-.59.27-1.05.64-1.4,1.12-.35.48-.52,1.07-.52,1.76,0,.53.11,1.12.32,1.76.21.64.51,1.17.88,1.6.85-.11,1.69-.25,2.52-.44.83-.19,1.65-.4,2.48-.64.83-.24,1.56-.44,2.2-.6l1.36,3.36-9.84,6.48ZM463.6,349.21c-1.23,0-2.43-.27-3.6-.8-1.17-.53-2.27-1.32-3.28-2.36-1.01-1.04-1.89-2.31-2.64-3.8l-1.52-.24v-19.6c0-2.51-.39-4.33-1.16-5.48-.77-1.15-1.59-1.93-2.44-2.36-.53.05-1.07.15-1.6.28s-.99.31-1.36.52l-2.32,8.96-9.12.08c-.59-1.97-.99-4.09-1.2-6.36-.21-2.27-.16-4.44.16-6.52,1.81-.64,3.75-1.21,5.8-1.72,2.05-.51,4.08-.93,6.08-1.28,2-.35,3.88-.61,5.64-.8,1.76-.19,3.23-.28,4.4-.28,1.6,0,3.12.19,4.56.56,1.44.37,2.81,1,4.12,1.88,1.31.88,2.49,2.04,3.56,3.48.43.64.69,1.6.8,2.88.11,1.28.16,3.04.16,5.28v15.6c0,.53.16,1.01.48,1.44.32.43.8.64,1.44.64s1.27-.01,1.88-.04c.61-.03,1.4-.07,2.36-.12l.24,3.6-11.44,6.56Z"
      style="fill: #00203f; stroke-width: 0px;" />
    <path class="name-letter"
      d="M474.32,314.65l-.16-3.92c2.56-.91,5.32-1.62,8.28-2.16,2.96-.53,6.04-.85,9.24-.96l-.4,6.88-6.96,2.72-10-2.56ZM474.4,347.85l-.08-2.8c1.71-1.07,3.48-1.95,5.32-2.64,1.84-.69,3.59-1.23,5.24-1.6l-.64,7.04h-9.84ZM480.32,347.85v-35.6l11.36-4.64,4.72,4.88v35.36h-16.08ZM504.24,347.85v-22.48c0-2.19-.47-3.93-1.4-5.24-.93-1.31-2.33-1.91-4.2-1.8-1.23.05-2.52.39-3.88,1-1.36.61-2.71,1.36-4.04,2.24-1.33.88-2.64,1.8-3.92,2.76l-.08-1.68c2.13-2.4,4.33-4.56,6.6-6.48,2.27-1.92,4.56-3.56,6.88-4.92,2.32-1.36,4.6-2.44,6.84-3.24,1.07-.05,2.35.05,3.84.32,1.49.27,3.01.83,4.56,1.68s2.85,2.13,3.92,3.84c.27.43.47,1.01.6,1.76.13.75.23,1.79.28,3.12.05,1.33.08,3.2.08,5.6v23.52h-16.08ZM487.68,347.85l2.64-9.2c1.76.54,3.53,1.24,5.32,2.12,1.79.88,3.51,1.93,5.16,3.16l-.08,3.92h-13.04ZM511.6,347.85l2.64-9.2c1.76.54,3.76,1.24,6,2.12,2.24.88,4.19,1.93,5.84,3.16l-.16,3.92h-14.32Z"
      style="fill: #00203f; stroke-width: 0px;" />
    <path class="name-letter"
      d="M543.28,348.81c-3.25.53-6.05.31-8.4-.68-2.35-.99-4.13-2.37-5.36-4.16-1.23-1.79-1.84-3.61-1.84-5.48,0-1.71.53-3.47,1.6-5.28,1.07-1.81,2.8-3.31,5.2-4.48l17.76-.4v5.28h-2.56c-.8,0-1.59.07-2.36.2-.77.13-1.45.33-2.04.6-.59.27-1.05.64-1.4,1.12-.35.48-.52,1.07-.52,1.76,0,.53.11,1.12.32,1.76.21.64.51,1.17.88,1.6.85-.11,1.69-.25,2.52-.44.83-.19,1.65-.4,2.48-.64.83-.24,1.56-.44,2.2-.6l1.36,3.36-9.84,6.48ZM560.56,349.21c-1.23,0-2.43-.27-3.6-.8-1.17-.53-2.27-1.32-3.28-2.36-1.01-1.04-1.89-2.31-2.64-3.8l-1.52-.24v-19.6c0-2.51-.39-4.33-1.16-5.48-.77-1.15-1.59-1.93-2.44-2.36-.53.05-1.07.15-1.6.28s-.99.31-1.36.52l-2.32,8.96-9.12.08c-.59-1.97-.99-4.09-1.2-6.36-.21-2.27-.16-4.44.16-6.52,1.81-.64,3.75-1.21,5.8-1.72,2.05-.51,4.08-.93,6.08-1.28,2-.35,3.88-.61,5.64-.8,1.76-.19,3.23-.28,4.4-.28,1.6,0,3.12.19,4.56.56,1.44.37,2.81,1,4.12,1.88,1.31.88,2.49,2.04,3.56,3.48.43.64.69,1.6.8,2.88.11,1.28.16,3.04.16,5.28v15.6c0,.53.16,1.01.48,1.44.32.43.8.64,1.44.64s1.27-.01,1.88-.04c.61-.03,1.4-.07,2.36-.12l.24,3.6-11.44,6.56Z"
      style="fill: #00203f; stroke-width: 0px;" />
    <path class="name-letter"
      d="M592.32,347.85l-.48-2.56c1.12-.91,2.35-1.75,3.68-2.52,1.33-.77,2.75-1.51,4.24-2.2l.08,7.28h-7.52ZM595.84,347.85l20.88-51.68,8.72,1.44-18.56,50.24h-11.04ZM604.08,347.85l.24-6.32,11.04,1.92-.08,4.4h-11.2ZM608.16,334.89v-7.36h26.64v7.36h-26.64ZM632.8,347.85l-19.04-51.6,14.56-3.6,22.16,55.2h-17.68ZM624.96,347.85l-.48-2.56c1.12-.91,2.35-1.75,3.68-2.52s2.75-1.51,4.24-2.2l.88,7.28h-8.32ZM642.72,347.85l.24-6.32,11.04,1.92-.08,4.4h-11.2Z"
      style="fill: #00203f; stroke-width: 0px;" />
    <path class="name-letter"
      d="M670,368.01c-1.92,0-3.88-.2-5.88-.6s-3.88-1.08-5.64-2.04c-1.76-.96-3.25-2.25-4.48-3.88-1.23-1.63-2-3.67-2.32-6.12l12.56-11.04,7.68-.56c-1.87,1.01-3.4,1.99-4.6,2.92-1.2.93-2.09,1.81-2.68,2.64-.59.83-.88,1.64-.88,2.44,0,1.65.89,2.87,2.68,3.64,1.79.77,3.88,1.16,6.28,1.16,1.49,0,3-.15,4.52-.44,1.52-.29,2.91-.72,4.16-1.28,1.25-.56,2.25-1.24,3-2.04-2.35-.8-5.05-1.52-8.12-2.16-3.07-.64-6.32-1.17-9.76-1.6-3.44-.43-6.95-.72-10.52-.88l-1.76-6.56c1.39-1.39,2.77-2.64,4.16-3.76,1.39-1.12,2.84-2.16,4.36-3.12,1.52-.96,3.13-1.84,4.84-2.64l5.36,1.36c-1.12.64-2.16,1.32-3.12,2.04s-1.84,1.45-2.64,2.2c2.35,0,4.71.11,7.08.32,2.37.21,4.72.52,7.04.92,2.32.4,4.59.84,6.8,1.32,2.21.48,4.31,1.01,6.28,1.6,1.12,2.24,1.56,4.57,1.32,7-.24,2.43-1.04,4.77-2.4,7.04-1.36,2.27-3.2,4.32-5.52,6.16-2.32,1.84-4.99,3.29-8,4.36-3.01,1.07-6.28,1.6-9.8,1.6ZM672.4,335.37c-4.48,0-8.13-.68-10.96-2.04-2.83-1.36-4.92-3.09-6.28-5.2-1.36-2.11-2.04-4.23-2.04-6.36,0-2.35.75-4.61,2.24-6.8,1.49-2.19,3.72-4,6.68-5.44s6.57-2.16,10.84-2.16c4,0,7.47.64,10.4,1.92,2.93,1.28,5.19,2.99,6.76,5.12,1.57,2.13,2.36,4.45,2.36,6.96s-.76,4.67-2.28,6.8c-1.52,2.13-3.76,3.87-6.72,5.2-2.96,1.33-6.63,2-11,2ZM674.72,328.97c.69-.43,1.24-1.28,1.64-2.56.4-1.28.6-2.67.6-4.16,0-1.07-.15-2.13-.44-3.2-.29-1.07-.72-2.01-1.28-2.84-.56-.83-1.24-1.43-2.04-1.8-.8-.37-1.73-.4-2.8-.08-.53.37-.97,1.29-1.32,2.76-.35,1.47-.52,2.95-.52,4.44s.21,2.79.64,4.04c.43,1.25,1.11,2.21,2.04,2.88.93.67,2.09.84,3.48.52ZM684.16,319.69c-.48-1.76-.71-3.61-.68-5.56.03-1.95.44-3.8,1.24-5.56.8-1.76,2.08-3.2,3.84-4.32,1.76-1.12,4.11-1.71,7.04-1.76l2.48,12.32c-4.85-.85-8.91.16-12.16,3.04l-1.76,1.84Z"
      style="fill: #00203f; stroke-width: 0px;" />
    <path class="name-letter"
      d="M699.04,314.65l-.16-3.92c2.56-.91,5.32-1.62,8.28-2.16,2.96-.53,6.04-.85,9.24-.96l-.4,6.88-6.96,2.72-10-2.56ZM699.12,347.85l-.08-2.8c1.71-1.07,3.48-1.95,5.32-2.64,1.84-.69,3.59-1.23,5.24-1.6l-.64,7.04h-9.84ZM705.04,347.85v-35.6l11.36-4.64,4.72,9.52v30.72h-16.08ZM711.12,328.17l2.88-5.2,12.72-14.88c1.81-.59,3.71-.69,5.68-.32,1.97.37,3.72,1.15,5.24,2.32,1.52,1.17,2.55,2.67,3.08,4.48l-10,12.24c-1.39-1.23-2.91-2.44-4.56-3.64-1.65-1.2-3.41-1.93-5.28-2.2l-9.76,7.2ZM716.56,347.85l2.64-8.56c1.17.32,2.37.71,3.6,1.16,1.23.45,2.45.96,3.68,1.52,1.23.56,2.4,1.21,3.52,1.96l-.08,3.92h-13.36Z"
      style="fill: #00203f; stroke-width: 0px;" />
    <path class="name-letter"
      d="M755.68,348.81c-3.25.53-6.05.31-8.4-.68-2.35-.99-4.13-2.37-5.36-4.16-1.23-1.79-1.84-3.61-1.84-5.48,0-1.71.53-3.47,1.6-5.28,1.07-1.81,2.8-3.31,5.2-4.48l17.76-.4v5.28h-2.56c-.8,0-1.59.07-2.36.2-.77.13-1.45.33-2.04.6-.59.27-1.05.64-1.4,1.12-.35.48-.52,1.07-.52,1.76,0,.53.11,1.12.32,1.76.21.64.51,1.17.88,1.6.85-.11,1.69-.25,2.52-.44.83-.19,1.65-.4,2.48-.64.83-.24,1.56-.44,2.2-.6l1.36,3.36-9.84,6.48ZM772.96,349.21c-1.23,0-2.43-.27-3.6-.8-1.17-.53-2.27-1.32-3.28-2.36-1.01-1.04-1.89-2.31-2.64-3.8l-1.52-.24v-19.6c0-2.51-.39-4.33-1.16-5.48-.77-1.15-1.59-1.93-2.44-2.36-.53.05-1.07.15-1.6.28s-.99.31-1.36.52l-2.32,8.96-9.12.08c-.59-1.97-.99-4.09-1.2-6.36-.21-2.27-.16-4.44.16-6.52,1.81-.64,3.75-1.21,5.8-1.72,2.05-.51,4.08-.93,6.08-1.28,2-.35,3.88-.61,5.64-.8,1.76-.19,3.23-.28,4.4-.28,1.6,0,3.12.19,4.56.56,1.44.37,2.81,1,4.12,1.88,1.31.88,2.49,2.04,3.56,3.48.43.64.69,1.6.8,2.88.11,1.28.16,3.04.16,5.28v15.6c0,.53.16,1.01.48,1.44.32.43.8.64,1.44.64s1.27-.01,1.88-.04c.61-.03,1.4-.07,2.36-.12l.24,3.6-11.44,6.56Z"
      style="fill: #00203f; stroke-width: 0px;" />
    <path class="name-letter"
      d="M795.2,324.17l-14.64-10.4v-4.48h18.56l-3.92,14.88ZM796.24,348.17l-13.2-36.4,16.16-2.48,5.92,18.96,2.08,6.72h.96l3.92-10.96,6.16,2-1.52,7.76-6,13.76c-1.28.37-2.85.65-4.72.84-1.87.19-3.68.25-5.44.2-1.76-.05-3.2-.19-4.32-.4ZM818.8,348.17l-13.84-38.4,16.24-.32,5.2,18.96,1.84,6.56h.88l-.08-25.68h17.6l-14,38.24c-1.28.37-2.8.65-4.56.84-1.76.19-3.47.25-5.12.2-1.65-.05-3.04-.19-4.16-.4ZM842.8,316.49l-9.6-7.2h14.24l.08,4.24c-.69.59-1.43,1.13-2.2,1.64-.77.51-1.61.95-2.52,1.32Z"
      style="fill: #00203f; stroke-width: 0px;" />
    <path class="name-letter"
      d="M863.52,348.81c-3.25.53-6.05.31-8.4-.68-2.35-.99-4.13-2.37-5.36-4.16-1.23-1.79-1.84-3.61-1.84-5.48,0-1.71.53-3.47,1.6-5.28,1.07-1.81,2.8-3.31,5.2-4.48l17.76-.4v5.28h-2.56c-.8,0-1.59.07-2.36.2-.77.13-1.45.33-2.04.6-.59.27-1.05.64-1.4,1.12-.35.48-.52,1.07-.52,1.76,0,.53.11,1.12.32,1.76.21.64.51,1.17.88,1.6.85-.11,1.69-.25,2.52-.44.83-.19,1.65-.4,2.48-.64.83-.24,1.56-.44,2.2-.6l1.36,3.36-9.84,6.48ZM880.8,349.21c-1.23,0-2.43-.27-3.6-.8-1.17-.53-2.27-1.32-3.28-2.36-1.01-1.04-1.89-2.31-2.64-3.8l-1.52-.24v-19.6c0-2.51-.39-4.33-1.16-5.48-.77-1.15-1.59-1.93-2.44-2.36-.53.05-1.07.15-1.6.28s-.99.31-1.36.52l-2.32,8.96-9.12.08c-.59-1.97-.99-4.09-1.2-6.36-.21-2.27-.16-4.44.16-6.52,1.81-.64,3.75-1.21,5.8-1.72,2.05-.51,4.08-.93,6.08-1.28,2-.35,3.88-.61,5.64-.8,1.76-.19,3.23-.28,4.4-.28,1.6,0,3.12.19,4.56.56,1.44.37,2.81,1,4.12,1.88,1.31.88,2.49,2.04,3.56,3.48.43.64.69,1.6.8,2.88.11,1.28.16,3.04.16,5.28v15.6c0,.53.16,1.01.48,1.44.32.43.8.64,1.44.64s1.27-.01,1.88-.04c.61-.03,1.4-.07,2.36-.12l.24,3.6-11.44,6.56Z"
      style="fill: #00203f; stroke-width: 0px;" />
    <path class="name-letter"
      d="M893.12,296.01l-.16-4c2.56-.91,5.32-1.61,8.28-2.12,2.96-.51,6.04-.84,9.24-1l-.4,6.88-6.96,2.72-10-2.48ZM893.12,347.85l-.08-2.8c1.71-1.07,3.48-1.95,5.32-2.64,1.84-.69,3.59-1.23,5.24-1.6l-.64,7.04h-9.84ZM899.12,347.85v-54.32l11.36-4.64,4.72,4.32v54.64h-16.08ZM906.56,347.85l2.64-9.2c1.76.54,3.75,1.24,5.96,2.12,2.21.88,4.15,1.93,5.8,3.16l-.08,3.92h-14.32Z"
      style="fill: #00203f; stroke-width: 0px;" />
  </g>

  <g class="bio-container">
    <text class="bio-text" transform="translate(303.29 411.88)"
      style="fill: #000; font-family: Ebrima, Ebrima; font-size: 20px;">
      I’m a design and web design specialist with 4 years of experience in
      marketing, user flows, wireframing, and website publishing. I’m
      proficient in design and development tools like Figma, React, Adobe Suite, and
      advanced CSS, all of which I used to create this animation. For more
      of my work, see my portfolio or contact me directly.
    </text>
  </g>

  <line class="name-divider" x1="269.93" y1="376.24" x2="930.07" y2="376.24"
    style="fill: #00203f; stroke: #d86354; stroke-miterlimit: 10; stroke-width: 3px;" />
</svg>